# xmcd CD database file
#
# Track frame offsets:
#	150
#	13987
#	28590
#	39132
#	48637
#	65220
#	80215
#	95754
#	110097
#	123930
#	144150
#	144910
#	145660
#	146412
#	147162
#	147912
#	148665
#	149415
#	150165
#	150917
#	151667
#	152420
#	153170
#	153920
#	154670
#	155420
#	156172
#	156922
#	157672
#	158425
#	159175
#	159925
#	160677
#	161417
#	162177
#	162930
#	163680
#	164432
#	165180
#	165932
#	166682
#	167432
#	168184
#	168934
#	169684
#	170437
#	171187
#	171937
#	172690
#	173430
#	174190
#	174940
#	175692
#	176442
#	177192
#	177942
#	178695
#	179445
#	180195
#	180947
#	181697
#	182450
#	183200
#	183940
#	184700
#	185450
#	186202
#	186952
#	187702
#	188455
#	189195
#	189955
#	190707
#	191457
#	192207
#	192960
#	193710
#	194460
#	195210
#	195962
#	196712
#	197462
#	198215
#	198965
#	199715
#	200467
#	201217
#	201967
#	202720
#	203470
#	204220
#	204970
#	205722
#	206472
#	207222
#	207972
#	208727
#	209517
#
# Disc length: 2975 seconds
#
# Revision: 5
# Processed by: cddbd v1.5PL3 Copyright (c) Steve Scherf et al.
# Submitted via: CDex 1.51
#
DISCID=e00b9d62
DTITLE=余力機構 - 快活
DYEAR=2000
DGENRE=New Age
TTITLE0=快活在可樂天
TTITLE1=琴流感
TTITLE2=我和巴哈在米埔野餐 (Prelude Part)
TTITLE3=余力姬、巴哈、郊野管理員和地盤工人 (Fugue Part)
TTITLE4=哀悼乳房
TTITLE5=拍拍午餐肉
TTITLE6=單人跨國漫遊
TTITLE7=高尚靈魂
TTITLE8=三分鐘宇宙論
TTITLE9=精神分裂
TTITLE10=11
TTITLE11=12
TTITLE12=13
TTITLE13=14
TTITLE14=15
TTITLE15=16
TTITLE16=17
TTITLE17=18
TTITLE18=19
TTITLE19=20
TTITLE20=21
TTITLE21=22
TTITLE22=23
TTITLE23=24
TTITLE24=25
TTITLE25=26
TTITLE26=27
TTITLE27=28
TTITLE28=29
TTITLE29=30
TTITLE30=31
TTITLE31=32
TTITLE32=33
TTITLE33=34
TTITLE34=35
TTITLE35=36
TTITLE36=37
TTITLE37=38
TTITLE38=39
TTITLE39=40
TTITLE40=41
TTITLE41=42
TTITLE42=43
TTITLE43=44
TTITLE44=45
TTITLE45=46
TTITLE46=47
TTITLE47=48
TTITLE48=49
TTITLE49=50
TTITLE50=51
TTITLE51=52
TTITLE52=53
TTITLE53=54
TTITLE54=55
TTITLE55=56
TTITLE56=57
TTITLE57=58
TTITLE58=59
TTITLE59=60
TTITLE60=61
TTITLE61=62
TTITLE62=63
TTITLE63=64
TTITLE64=65
TTITLE65=66
TTITLE66=67
TTITLE67=68
TTITLE68=69
TTITLE69=70
TTITLE70=71
TTITLE71=72
TTITLE72=73
TTITLE73=74
TTITLE74=75
TTITLE75=76
TTITLE76=77
TTITLE77=78
TTITLE78=79
TTITLE79=80
TTITLE80=81
TTITLE81=82
TTITLE82=83
TTITLE83=84
TTITLE84=85
TTITLE85=86
TTITLE86=87
TTITLE87=88
TTITLE88=89
TTITLE89=90
TTITLE90=91
TTITLE91=92
TTITLE92=93
TTITLE93=94
TTITLE94=95
TTITLE95=96
TTITLE96=97
TTITLE97=(Hidden Track)
EXTD=YEAR: 2000
EXTT0=
EXTT1=
EXTT2=
EXTT3=
EXTT4=
EXTT5=
EXTT6=
EXTT7=
EXTT8=
EXTT9=
EXTT10=
EXTT11=
EXTT12=
EXTT13=
EXTT14=
EXTT15=
EXTT16=
EXTT17=
EXTT18=
EXTT19=
EXTT20=
EXTT21=
EXTT22=
EXTT23=
EXTT24=
EXTT25=
EXTT26=
EXTT27=
EXTT28=
EXTT29=
EXTT30=
EXTT31=
EXTT32=
EXTT33=
EXTT34=
EXTT35=
EXTT36=
EXTT37=
EXTT38=
EXTT39=
EXTT40=
EXTT41=
EXTT42=
EXTT43=
EXTT44=
EXTT45=
EXTT46=
EXTT47=
EXTT48=
EXTT49=
EXTT50=
EXTT51=
EXTT52=
EXTT53=
EXTT54=
EXTT55=
EXTT56=
EXTT57=
EXTT58=
EXTT59=
EXTT60=
EXTT61=
EXTT62=
EXTT63=
EXTT64=
EXTT65=
EXTT66=
EXTT67=
EXTT68=
EXTT69=
EXTT70=
EXTT71=
EXTT72=
EXTT73=
EXTT74=
EXTT75=
EXTT76=
EXTT77=
EXTT78=
EXTT79=
EXTT80=
EXTT81=
EXTT82=
EXTT83=
EXTT84=
EXTT85=
EXTT86=
EXTT87=
EXTT88=
EXTT89=
EXTT90=
EXTT91=
EXTT92=
EXTT93=
EXTT94=
EXTT95=
EXTT96=
EXTT97=
PLAYORDER=
